#!OML:ASF H:\ManfredETheater\Project 1\Capture day 1\Session 1\subject.ASF
:FULLY-SPECIFIED
:DEGREES
77
root 9.46259 16.5022 -4.30476 9.79604 -17.5792 6.27886
lowerback 13.8365 0.962074 -2.98323
upperback 1.218 0.677714 -1.78363
thorax -6.49006 0.382196 -0.329352
lowerneck -12.8339 -10.0957 -10.4734
upperneck 6.13795 -12.9659 11.5578
head 5.38528 -5.97383 4.0697
rclavicle -3.6477e-014 -3.24019e-014
rhumerus -51.4721 8.82062 -96.4669
rradius 95.8792
rwrist -12.8246
rhand -22.022 13.0857
rfingers 7.12502
rthumb 4.38755 -16.8489
lclavicle -3.6477e-014 -3.24019e-014
lhumerus -63.9088 -6.05906 97.8583
lradius 114.345
lwrist 10.1795
lhand -14.8523 -13.4302
lfingers 7.12502
lthumb 11.3072 16.245
rfemur -21.7914 -13.564 29.0666
rtibia 87.793
rfoot -6.56307 -14.2102
rtoes -18.9163
lfemur -35.5491 -7.08042 -0.0788235
ltibia 43.5542
lfoot -12.7362 -4.73774
ltoes -36.0266
78
root 9.35878 16.4409 -3.81708 8.95555 -19.3885 7.47445
lowerback 14.3379 0.844224 -4.27802
upperback 1.16489 0.267756 -2.04905
thorax -6.8253 0.218135 0.19182
lowerneck -13.1431 -9.47049 -10.0152
upperneck 6.35497 -12.118 10.9737
head 5.34092 -5.56996 3.90695
rclavicle 1.14301e-014 1.5704e-014
rhumerus -52.1392 8.20728 -96.3024
rradius 92.4343
rwrist -12.6936
rhand -22.6783 13.1307
rfingers 7.12502
rthumb 3.75377 -16.816
lclavicle 1.14301e-014 1.5704e-014
lhumerus -62.1109 -6.95313 97.985
lradius 115.111
lwrist 10.1871
lhand -14.7778 -13.2357
lfingers 7.12502
lthumb 11.379 16.4355
rfemur -24.923 -14.645 27.4711
rtibia 91.4412
rfoot -7.89909 -13.6581
rtoes -19.4893
lfemur -32.7515 -6.28329 -1.94679
ltibia 44.212
lfoot -15.3404 -4.75057
ltoes -36.9331
79
root 9.2511 16.3772 -3.33703 8.12945 -21.0516 8.87384
lowerback 14.7955 0.689088 -5.69484
upperback 1.06619 -0.231634 -2.35062
thorax -7.16719 0.0197509 0.765018
lowerneck -13.5346 -8.84804 -9.55161
upperneck 6.63662 -11.2728 10.3629
head 5.33738 -5.16607 3.72773
rclavicle 2.80783e-014 -3.18055e-014
rhumerus -52.868 7.49663 -95.9473
rradius 89.2704
rwrist -12.0935
rhand -23.443 13.2658
rfingers 7.12502
rthumb 3.01531 -16.6926
lclavicle 2.80783e-014 -3.18055e-014
lhumerus -60.1364 -7.96754 97.8526
lradius 115.902
lwrist 10.1583
lhand -14.7785 -13.0796
lfingers 7.12502
lthumb 11.3784 16.5917
rfemur -28.5181 -15.8003 26.0599
rtibia 94.6013
rfoot -9.19982 -12.8953
rtoes -20.2349
lfemur -30.1199 -5.43236 -3.9876
ltibia 44.6952
lfoot -17.6122 -4.81755
ltoes -37.5571
80
root 9.13889 16.3129 -2.86183 7.37096 -22.5142 10.3908
lowerback 15.1488 0.48883 -7.12359
upperback 0.933179 -0.805195 -2.66802
thorax -7.4657 -0.208762 1.34622
lowerneck -14.0165 -8.24645 -9.0831
upperneck 6.96866 -10.4543 9.73894
head 5.37518 -4.77403 3.53475
rclavicle 1.5207e-014 9.34288e-015
rhumerus -53.7205 6.69327 -95.4038
rradius 86.5802
rwrist -11.1958
rhand -24.2456 13.4454
rfingers 7.12502
rthumb 2.24015 -16.5226
lclavicle 1.5207e-014 9.34288e-015
lhumerus -57.9848 -9.06518 97.4243
lradius 116.733
lwrist 10.1424
lhand -14.8178 -12.9578
lfingers 7.12502
lthumb 11.3405 16.7156
rfemur -32.5571 -16.9886 24.9959
rtibia 97.1547
rfoot -10.4097 -11.9718
rtoes -21.2116
lfemur -27.7093 -4.56972 -6.09519
ltibia 45.0053
lfoot -19.5016 -4.9675
ltoes -37.8275
81
root 9.02095 16.2506 -2.38855 6.74099 -23.7603 11.876
lowerback 15.3647 0.244641 -8.40987
upperback 0.776098 -1.4123 -2.96655
thorax -7.69357 -0.453966 1.87498
lowerneck -14.5488 -7.68333 -8.62729
upperneck 7.30942 -9.68617 9.12511
head 5.43896 -4.40676 3.33853
rclavicle -5.04416e-014 1.98785e-015
rhumerus -54.7642 5.83646 -94.7
rradius 84.5187
rwrist -10.3042
rhand -25.0602 13.6138
rfingers 7.12502
rthumb 1.45343 -16.361
lclavicle -5.04416e-014 1.98785e-015
lhumerus -55.6716 -10.194 96.6967
lradius 117.616
lwrist 10.1568
lhand -14.9887 -12.8801
lfingers 7.12502
lthumb 11.1756 16.8023
rfemur -36.9641 -18.0915 24.4713
rtibia 98.9802
rfoot -11.5056 -10.9776
rtoes -22.5637
lfemur -25.5069 -3.76094 -8.10601
ltibia 45.1449
lfoot -21.0355 -5.16323
ltoes -37.8934
82
root 8.89534 16.193 -1.91557 6.29932 -24.772 13.1937
lowerback 15.4388 -0.0510504 -9.43558
upperback 0.605062 -2.02924 -3.20895
thorax -7.84356 -0.710302 2.3178
lowerneck -15.118 -7.16429 -8.18702
upperneck 7.6291 -8.97524 8.52797
head 5.51718 -4.06831 3.1425
rclavicle 2.39287e-014 -4.12478e-014
rhumerus -56.0409 5.00196 -93.8715
rradius 83.1939
rwrist -9.79862
rhand -25.7618 13.7313
rfingers 7.12502
rthumb 0.775785 -16.247
lclavicle 2.39287e-014 -4.12478e-014
lhumerus -53.2086 -11.2579 95.6985
lradius 118.551
lwrist 10.1752
lhand -15.223 -12.7967
lfingers 7.12502
lthumb 10.9496 16.8978
rfemur -41.6262 -18.9896 24.6089
rtibia 99.9743
rfoot -12.4448 -9.98745
rtoes -24.2092
lfemur -23.4847 -3.04616 -9.87637
ltibia 45.1127
lfoot -22.2232 -5.41602
ltoes -37.9545
83
root 8.75886 16.1448 -1.44021 6.04404 -25.5549 14.2491
lowerback 15.3972 -0.393047 -10.1273
upperback 0.444509 -2.62798 -3.37127
thorax -7.91317 -0.969583 2.65257
lowerneck -15.682 -6.69164 -7.77149
upperneck 7.88086 -8.32462 7.95915
head 5.58816 -3.7613 2.95353
rclavicle -9.73051e-014 -6.13251e-014
rhumerus -57.5558 4.26288 -92.9724
rradius 82.6129
rwrist -9.96604
rhand -26.3116 13.7854
rfingers 7.12502
rthumb 0.244833 -16.1942
lclavicle -9.73051e-014 -6.13251e-014
lhumerus -50.6056 -12.1602 94.4786
lradius 119.53
lwrist 10.2113
lhand -15.4871 -12.6928
lfingers 7.12502
lthumb 10.6949 17.015
rfemur -46.3083 -19.5903 25.388
rtibia 100.041
rfoot -13.2375 -9.04743
rtoes -26.0861
lfemur -21.5444 -2.51497 -11.3112
ltibia 44.889
lfoot -23.0276 -5.7702
ltoes -37.9874
84
root 8.60931 16.1103 -0.961562 5.97039 -26.1275 15.0032
lowerback 15.2683 -0.776222 -10.4717
upperback 0.305279 -3.19708 -3.44172
thorax -7.91447 -1.22838 2.88212
lowerneck -16.2129 -6.2579 -7.38221
upperneck 8.02953 -7.72475 7.42315
head 5.63421 -3.48142 2.7754
rclavicle -6.3462e-014 -3.53837e-014
rhumerus -59.2776 3.67945 -92.0543
rradius 82.6992
rwrist -10.9212
rhand -26.6685 13.796
rfingers 7.12502
rthumb -0.0999151 -16.1837
lclavicle -6.3462e-014 -3.53837e-014
lhumerus -47.8896 -12.7958 93.1174
lradius 120.539
lwrist 10.2503
lhand -15.8044 -12.568
lfingers 7.12502
lthumb 10.3888 17.1553
rfemur -50.7986 -19.8546 26.6859
rtibia 99.1325
rfoot -13.8922 -8.18625
rtoes -28.0013
lfemur -19.6357 -2.23613 -12.3742
ltibia 44.4522
lfoot -23.4105 -6.22383
ltoes -38.0602
85
root 8.44475 16.0934 -0.478654 6.01803 -26.5507 15.4656
lowerback 15.1051 -1.17708 -10.5154
upperback 0.200481 -3.71947 -3.42143
thorax -7.86923 -1.47727 3.02892
lowerneck -16.7018 -5.85283 -7.01301
upperneck 8.06804 -7.16373 6.91795
head 5.64903 -3.22254 2.60789
rclavicle -3.40419e-014 3.74709e-014
rhumerus -61.1491 3.27976 -91.1551
rradius 83.3162
rwrist -12.5769
rhand -26.8301 13.7998
rfingers 7.12502
rthumb -0.255998 -16.1797
lclavicle -3.40419e-014 3.74709e-014
lhumerus -45.1158 -13.0942 91.7146
lradius 121.563
lwrist 10.2979
lhand -16.1199 -12.4011
lfingers 7.12502
lthumb 10.0845 17.3372
rfemur -54.8442 -19.7892 28.2969
rtibia 97.2451
rfoot -14.4695 -7.3964
rtoes -29.8119
lfemur -17.6582 -2.23078 -13.0897
ltibia 43.7746
lfoot -23.3097 -6.78958
ltoes -38.1968
